<svg width="79" height="24" viewBox="0 0 79 24" fill="none" xmlns="http://www.w3.org/2000/svg">
<path d="M67.6567 0.76062H11.3433C5.07855 0.76062 0 5.84291 0 12.1122V12.409C0 18.6783 5.07855 23.7606 11.3433 23.7606H67.6567C73.9215 23.7606 79 18.6783 79 12.409V12.1122C79 5.84291 73.9215 0.76062 67.6567 0.76062Z" fill="black"/>
<path d="M14.0966 12.6546C13.504 12.6387 12.9109 12.6595 12.3208 12.7169V10.3865C12.9263 10.4796 13.5395 10.5127 14.1515 10.4854H21.361C21.973 10.5127 22.5862 10.4796 23.1917 10.3865V12.7169C22.6016 12.6595 22.0086 12.6387 21.4159 12.6546H19.2629C19.1751 14.2522 18.7943 15.3441 17.9741 16.3627C17.348 17.1469 16.418 17.7625 15.0449 18.3267C14.6357 17.4513 14.0513 16.6694 13.3277 16.0293C14.6019 15.6629 15.3854 15.2085 15.9127 14.5637C16.3129 14.0091 16.5351 13.3459 16.5498 12.6619L14.0966 12.6546ZM21.7125 7.55042C22.0025 8.11113 22.2367 8.69899 22.4118 9.30555L21.1852 9.69762C21.0574 9.24417 20.9058 8.79774 20.7312 8.36019V9.5767C20.2552 9.54006 20.0319 9.52542 19.3105 9.52542H15.3745C14.772 9.50919 14.1692 9.52999 13.5693 9.5877V7.18401C14.1824 7.2752 14.8029 7.30711 15.4221 7.27928H19.2629C19.7523 7.29331 20.242 7.26881 20.7275 7.20599V7.84355L21.7125 7.55042ZM22.7194 9.20661C22.5475 8.609 22.3093 8.03258 22.0091 7.48814L23.21 7.09607C23.5104 7.62376 23.7487 8.18444 23.9203 8.76693L22.7194 9.20661Z" fill="#F9F5FF"/>
<path d="M27.2854 7.15809C27.236 7.56895 27.2189 7.98305 27.2342 8.39658V11.9069C27.2173 12.3131 27.2345 12.72 27.2854 13.1233H24.5356C24.5723 12.7936 24.5979 12.3282 24.6089 11.8959V8.3636C24.6317 7.9535 24.612 7.54216 24.5503 7.13611L27.2854 7.15809ZM33.0486 7.15809C32.9652 7.57892 32.9405 8.00928 32.9753 8.43688L32.9497 10.4119C32.9497 12.3026 32.8509 13.2956 32.6422 14.076C32.276 15.4025 31.4778 16.3955 30.1157 17.1796C29.2798 17.6357 28.3906 17.9865 27.4685 18.2239C27.167 17.3043 26.667 16.4624 26.0039 15.7579C26.8623 15.6379 27.6949 15.3766 28.4681 14.9848C29.4969 14.4205 30.0389 13.7206 30.2219 12.724C30.3183 11.9104 30.3671 11.0919 30.3684 10.2726V8.48085C30.3805 8.04072 30.3523 7.60041 30.2841 7.16543L33.0486 7.15809Z" fill="#F9F5FF"/>
<path d="M35.5015 9.93201C36.7353 10.387 37.9124 10.9834 39.0092 11.7091L37.7972 13.9809C36.6958 13.1469 35.4766 12.4813 34.1797 12.0059L35.5015 9.93201ZM34.5824 15.256C35.9294 15.1996 37.2569 14.9133 38.5076 14.4096C39.8741 13.9122 41.0438 12.987 41.8432 11.7714C42.4253 10.9571 42.8717 10.0538 43.165 9.09657C43.7947 9.78829 44.5124 10.3944 45.2996 10.8994C44.852 12.1005 44.1922 13.2113 43.3517 14.1788C42.0622 15.6093 40.402 16.6543 38.5551 17.1981C37.776 17.4353 36.9805 17.6153 36.1752 17.7367C35.882 17.7889 35.5922 17.8587 35.3074 17.9455L34.5824 15.256ZM36.4132 6.90173C37.6855 7.32501 38.9121 7.87494 40.0747 8.54327L38.8261 10.7418C37.6775 9.98666 36.4356 9.38436 35.1317 8.95001L36.4132 6.90173Z" fill="#F9F5FF"/>
<path d="M47.4857 9.88074C47.4389 9.55399 47.3567 9.23332 47.2405 8.9244L49.5582 8.55798C49.5762 8.88713 49.6129 9.21498 49.668 9.53998L49.8181 10.3021L53.5455 9.68655C53.7421 9.66577 53.9288 9.58952 54.0837 9.46669L55.4202 10.6942C55.2737 10.8518 55.2737 10.8518 55.1016 11.394C54.6268 12.8189 53.7707 14.0862 52.6265 15.0582C52.1007 14.5001 51.481 14.0387 50.7957 13.6951C51.4851 13.2305 52.0629 12.6185 52.4873 11.9034L50.1806 12.3101L51.0154 16.7401C51.0536 17.0934 51.1398 17.4398 51.2717 17.7697L48.8332 18.2021C48.8281 17.8555 48.7951 17.51 48.7343 17.1688L47.9618 12.6912L47.1526 12.8377C46.7802 12.9007 46.413 12.9913 46.0541 13.1089L45.688 10.9104C46.0918 10.905 46.4945 10.8683 46.8926 10.8005L47.6249 10.6759L47.4857 9.88074Z" fill="#F9F5FF"/>
<path d="M64.6944 18.1033C64.1781 17.4438 63.7608 16.9748 63.0395 16.2016C62.5095 15.6607 61.9391 15.1609 61.3332 14.7066C60.6844 15.445 59.9465 16.0998 59.1363 16.656C58.4326 17.1664 57.6809 17.6069 56.8918 17.9714C56.4845 17.1314 55.9372 16.3668 55.2734 15.7106C58.2282 14.5711 60.4215 12.5814 61.454 10.1264C61.476 10.0788 61.476 10.0678 61.5016 10.0165C61.5217 9.99256 61.5344 9.96329 61.5382 9.93224H61.4284L58.0562 9.99452C57.5661 10.0003 57.077 10.037 56.5916 10.1044L56.5147 7.5615C56.9191 7.63563 57.3304 7.66511 57.7413 7.64944H58.0379L62.9662 7.5615C63.5301 7.5615 63.5923 7.5615 63.8486 7.3783L65.1265 8.70472C64.9178 8.87694 64.8555 8.97588 64.6578 9.46688C64.2185 10.6258 63.6381 11.726 62.9296 12.7426C64.2502 13.7524 65.5072 14.8427 66.6936 16.0074L64.6944 18.1033Z" fill="#F9F5FF"/>
</svg>
